<mxfile host="app.diagrams.net" agent="Mozilla/5.0 (Windows NT 10.0; Win64; x64) AppleWebKit/537.36 (KHTML, like Gecko) Chrome/128.0.0.0 Safari/537.36" version="24.7.12">
  <diagram id="prtHgNgQTEPvFCAcTncT" name="Page-1">
    <mxGraphModel dx="1050" dy="522" grid="1" gridSize="10" guides="1" tooltips="1" connect="1" arrows="1" fold="1" page="1" pageScale="1" pageWidth="827" pageHeight="1169" math="0" shadow="0">
      <root>
        <mxCell id="0" />
        <mxCell id="1" parent="0" />
        <mxCell id="dNxyNK7c78bLwvsdeMH5-19" value="收入流程图" style="swimlane;html=1;childLayout=stackLayout;resizeParent=1;resizeParentMax=0;horizontal=0;startSize=20;horizontalStack=0;" parent="1" vertex="1">
          <mxGeometry x="50" y="100" width="680" height="350" as="geometry" />
        </mxCell>
        <mxCell id="dNxyNK7c78bLwvsdeMH5-21" value="&lt;div style=&quot;text-align: justify;&quot;&gt;&lt;span style=&quot;background-color: initial;&quot;&gt;业财平台&lt;/span&gt;&lt;/div&gt;" style="swimlane;html=1;startSize=20;horizontal=0;align=center;" parent="1" vertex="1">
          <mxGeometry x="70" y="240" width="660" height="100" as="geometry">
            <mxRectangle y="140" width="40" height="80" as="alternateBounds" />
          </mxGeometry>
        </mxCell>
        <mxCell id="dNxyNK7c78bLwvsdeMH5-26" value="银行回单" style="rounded=0;whiteSpace=wrap;html=1;fontFamily=Helvetica;fontSize=12;fontColor=#000000;align=center;" parent="dNxyNK7c78bLwvsdeMH5-21" vertex="1">
          <mxGeometry x="120" y="30" width="80" height="40" as="geometry" />
        </mxCell>
        <mxCell id="dNxyNK7c78bLwvsdeMH5-23" value="开始" style="ellipse;whiteSpace=wrap;html=1;" parent="dNxyNK7c78bLwvsdeMH5-21" vertex="1">
          <mxGeometry x="30" y="40" width="30" height="30" as="geometry" />
        </mxCell>
        <mxCell id="dNxyNK7c78bLwvsdeMH5-25" value="" style="edgeStyle=orthogonalEdgeStyle;rounded=0;orthogonalLoop=1;jettySize=auto;html=1;entryX=0;entryY=0.5;entryDx=0;entryDy=0;" parent="dNxyNK7c78bLwvsdeMH5-21" source="dNxyNK7c78bLwvsdeMH5-23" target="dNxyNK7c78bLwvsdeMH5-26" edge="1">
          <mxGeometry relative="1" as="geometry" />
        </mxCell>
        <mxCell id="dNxyNK7c78bLwvsdeMH5-22" value="EAS财务" style="swimlane;html=1;startSize=20;horizontal=0;" parent="dNxyNK7c78bLwvsdeMH5-21" vertex="1">
          <mxGeometry y="100" width="660" height="110" as="geometry" />
        </mxCell>
        <mxCell id="dNxyNK7c78bLwvsdeMH5-34" value="收款单" style="rounded=0;whiteSpace=wrap;html=1;fontFamily=Helvetica;fontSize=12;fontColor=#000000;align=center;" parent="dNxyNK7c78bLwvsdeMH5-22" vertex="1">
          <mxGeometry x="170" y="30" width="80" height="30" as="geometry" />
        </mxCell>
        <mxCell id="IVHw0sD8TbPq8cIhb9Ln-19" value="" style="edgeStyle=orthogonalEdgeStyle;rounded=0;orthogonalLoop=1;jettySize=auto;html=1;" edge="1" parent="dNxyNK7c78bLwvsdeMH5-22" source="dNxyNK7c78bLwvsdeMH5-36" target="IVHw0sD8TbPq8cIhb9Ln-18">
          <mxGeometry relative="1" as="geometry" />
        </mxCell>
        <mxCell id="dNxyNK7c78bLwvsdeMH5-36" value="确认" style="rhombus;whiteSpace=wrap;html=1;fontFamily=Helvetica;fontSize=12;fontColor=#000000;align=center;" parent="dNxyNK7c78bLwvsdeMH5-22" vertex="1">
          <mxGeometry x="290" y="20" width="40" height="40" as="geometry" />
        </mxCell>
        <mxCell id="dNxyNK7c78bLwvsdeMH5-37" value="" style="edgeStyle=orthogonalEdgeStyle;rounded=0;orthogonalLoop=1;jettySize=auto;html=1;endArrow=classic;endFill=1;" parent="dNxyNK7c78bLwvsdeMH5-22" source="dNxyNK7c78bLwvsdeMH5-34" target="dNxyNK7c78bLwvsdeMH5-36" edge="1">
          <mxGeometry relative="1" as="geometry" />
        </mxCell>
        <mxCell id="IVHw0sD8TbPq8cIhb9Ln-18" value="生成凭证" style="whiteSpace=wrap;html=1;fontColor=#000000;" vertex="1" parent="dNxyNK7c78bLwvsdeMH5-22">
          <mxGeometry x="370" y="25" width="70" height="40" as="geometry" />
        </mxCell>
        <mxCell id="IVHw0sD8TbPq8cIhb9Ln-24" value="" style="edgeStyle=orthogonalEdgeStyle;rounded=0;orthogonalLoop=1;jettySize=auto;html=1;" edge="1" parent="dNxyNK7c78bLwvsdeMH5-22" source="IVHw0sD8TbPq8cIhb9Ln-22" target="IVHw0sD8TbPq8cIhb9Ln-23">
          <mxGeometry relative="1" as="geometry" />
        </mxCell>
        <mxCell id="IVHw0sD8TbPq8cIhb9Ln-22" value="凭证" style="shape=document;whiteSpace=wrap;html=1;boundedLbl=1;size=0.6666666666666666;" vertex="1" parent="dNxyNK7c78bLwvsdeMH5-22">
          <mxGeometry x="490" y="30" width="60" height="40" as="geometry" />
        </mxCell>
        <mxCell id="IVHw0sD8TbPq8cIhb9Ln-23" value="结束" style="ellipse;whiteSpace=wrap;html=1;" vertex="1" parent="dNxyNK7c78bLwvsdeMH5-22">
          <mxGeometry x="617" y="20" width="33" height="30" as="geometry" />
        </mxCell>
        <mxCell id="IVHw0sD8TbPq8cIhb9Ln-21" value="" style="edgeStyle=orthogonalEdgeStyle;rounded=0;orthogonalLoop=1;jettySize=auto;html=1;entryX=0;entryY=0.5;entryDx=0;entryDy=0;" edge="1" parent="dNxyNK7c78bLwvsdeMH5-22" source="IVHw0sD8TbPq8cIhb9Ln-18" target="IVHw0sD8TbPq8cIhb9Ln-22">
          <mxGeometry relative="1" as="geometry">
            <mxPoint x="490" y="22.5" as="targetPoint" />
          </mxGeometry>
        </mxCell>
        <mxCell id="IVHw0sD8TbPq8cIhb9Ln-17" style="edgeStyle=orthogonalEdgeStyle;rounded=0;orthogonalLoop=1;jettySize=auto;html=1;entryX=0;entryY=0.5;entryDx=0;entryDy=0;" edge="1" parent="dNxyNK7c78bLwvsdeMH5-21" source="dNxyNK7c78bLwvsdeMH5-26" target="dNxyNK7c78bLwvsdeMH5-34">
          <mxGeometry relative="1" as="geometry" />
        </mxCell>
        <mxCell id="IVHw0sD8TbPq8cIhb9Ln-7" style="edgeStyle=orthogonalEdgeStyle;rounded=0;orthogonalLoop=1;jettySize=auto;html=1;exitX=0.425;exitY=-0.02;exitDx=0;exitDy=0;exitPerimeter=0;" edge="1" parent="dNxyNK7c78bLwvsdeMH5-21" source="dNxyNK7c78bLwvsdeMH5-26">
          <mxGeometry relative="1" as="geometry">
            <mxPoint x="70" y="-80" as="targetPoint" />
            <mxPoint x="160" y="10" as="sourcePoint" />
            <Array as="points">
              <mxPoint x="154" y="-20" />
              <mxPoint x="71" y="-20" />
            </Array>
          </mxGeometry>
        </mxCell>
        <mxCell id="IVHw0sD8TbPq8cIhb9Ln-9" value="分拆匹配" style="edgeLabel;html=1;align=center;verticalAlign=middle;resizable=0;points=[];" vertex="1" connectable="0" parent="IVHw0sD8TbPq8cIhb9Ln-7">
          <mxGeometry x="0.0112" relative="1" as="geometry">
            <mxPoint as="offset" />
          </mxGeometry>
        </mxCell>
        <mxCell id="dNxyNK7c78bLwvsdeMH5-20" value="OA" style="swimlane;html=1;startSize=20;horizontal=0;" parent="dNxyNK7c78bLwvsdeMH5-21" vertex="1">
          <mxGeometry y="-140" width="660" height="140" as="geometry" />
        </mxCell>
        <mxCell id="IVHw0sD8TbPq8cIhb9Ln-5" value="" style="edgeStyle=orthogonalEdgeStyle;rounded=0;orthogonalLoop=1;jettySize=auto;html=1;" edge="1" parent="dNxyNK7c78bLwvsdeMH5-20" source="dNxyNK7c78bLwvsdeMH5-24">
          <mxGeometry relative="1" as="geometry">
            <mxPoint x="160" y="50" as="targetPoint" />
          </mxGeometry>
        </mxCell>
        <mxCell id="dNxyNK7c78bLwvsdeMH5-24" value="收入确认" style="rounded=0;whiteSpace=wrap;html=1;fontFamily=Helvetica;fontSize=12;fontColor=#000000;align=center;" parent="dNxyNK7c78bLwvsdeMH5-20" vertex="1">
          <mxGeometry x="40" y="30" width="60" height="30" as="geometry" />
        </mxCell>
        <mxCell id="dNxyNK7c78bLwvsdeMH5-30" value="审核确认" style="rounded=0;whiteSpace=wrap;html=1;fontFamily=Helvetica;fontSize=12;fontColor=#000000;align=center;" parent="dNxyNK7c78bLwvsdeMH5-20" vertex="1">
          <mxGeometry x="250" y="35" width="80" height="30" as="geometry" />
        </mxCell>
        <mxCell id="IVHw0sD8TbPq8cIhb9Ln-12" style="edgeStyle=orthogonalEdgeStyle;rounded=0;orthogonalLoop=1;jettySize=auto;html=1;exitX=0.5;exitY=0;exitDx=0;exitDy=0;entryX=0.5;entryY=0;entryDx=0;entryDy=0;" edge="1" parent="dNxyNK7c78bLwvsdeMH5-20" source="IVHw0sD8TbPq8cIhb9Ln-11" target="dNxyNK7c78bLwvsdeMH5-24">
          <mxGeometry relative="1" as="geometry" />
        </mxCell>
        <mxCell id="IVHw0sD8TbPq8cIhb9Ln-11" value="项目发票" style="shape=document;whiteSpace=wrap;html=1;boundedLbl=1;" vertex="1" parent="dNxyNK7c78bLwvsdeMH5-20">
          <mxGeometry x="80" y="80" width="60" height="30" as="geometry" />
        </mxCell>
        <mxCell id="IVHw0sD8TbPq8cIhb9Ln-14" value="" style="edgeStyle=orthogonalEdgeStyle;rounded=0;orthogonalLoop=1;jettySize=auto;html=1;" edge="1" parent="dNxyNK7c78bLwvsdeMH5-20" source="IVHw0sD8TbPq8cIhb9Ln-10" target="dNxyNK7c78bLwvsdeMH5-30">
          <mxGeometry relative="1" as="geometry" />
        </mxCell>
        <mxCell id="IVHw0sD8TbPq8cIhb9Ln-10" value="确认单" style="shape=document;whiteSpace=wrap;html=1;boundedLbl=1;" vertex="1" parent="dNxyNK7c78bLwvsdeMH5-20">
          <mxGeometry x="160" y="35" width="60" height="30" as="geometry" />
        </mxCell>
        <mxCell id="IVHw0sD8TbPq8cIhb9Ln-16" style="edgeStyle=orthogonalEdgeStyle;rounded=0;orthogonalLoop=1;jettySize=auto;html=1;entryX=0.605;entryY=0.12;entryDx=0;entryDy=0;entryPerimeter=0;" edge="1" parent="dNxyNK7c78bLwvsdeMH5-21" source="dNxyNK7c78bLwvsdeMH5-30" target="dNxyNK7c78bLwvsdeMH5-34">
          <mxGeometry relative="1" as="geometry" />
        </mxCell>
      </root>
    </mxGraphModel>
  </diagram>
</mxfile>
